<svg xmlns="http://www.w3.org/2000/svg" viewBox="0 0 1280 620" width="100%" height="100%">
  <defs>
    <!-- Background and UI Gradients -->
    <linearGradient id="bg-grad" x1="0%" y1="0%" x2="100%" y2="100%">
      <stop offset="0%" stop-color="#020617"/>
      <stop offset="100%" stop-color="#0f172a"/>
    </linearGradient>
    
    <linearGradient id="panel-grad" x1="0%" y1="0%" x2="100%" y2="100%">
      <stop offset="0%" stop-color="#1e293b"/>
      <stop offset="100%" stop-color="#0f172a"/>
    </linearGradient>

    <!-- Highlight gradients for node borders -->
    <linearGradient id="border-transform" x1="0%" y1="0%" x2="100%" y2="100%">
      <stop offset="0%" stop-color="#f8fafc"/>
      <stop offset="100%" stop-color="#94a3b8"/>
    </linearGradient>

    <!-- Line Chart Area Fill Gradient -->
    <linearGradient id="line-fill" x1="0%" y1="0%" x2="0%" y2="100%">
      <stop offset="0%" stop-color="#38bdf8" stop-opacity="0.4"/>
      <stop offset="100%" stop-color="#38bdf8" stop-opacity="0.0"/>
    </linearGradient>

    <!-- Glowing effect for data particles -->
    <filter id="glow" x="-50%" y="-50%" width="200%" height="200%">
      <feGaussianBlur in="SourceGraphic" stdDeviation="3" result="blur1"/>
      <feGaussianBlur in="SourceGraphic" stdDeviation="6" result="blur2"/>
      <feMerge>
        <feMergeNode in="blur2"/>
        <feMergeNode in="blur1"/>
        <feMergeNode in="SourceGraphic"/>
      </feMerge>
    </filter>

    <filter id="panel-glow" x="-20%" y="-20%" width="140%" height="140%">
      <feGaussianBlur in="SourceGraphic" stdDeviation="15" result="blur"/>
      <feComposite in="SourceGraphic" in2="blur" operator="over"/>
    </filter>

    <!-- Background Grid Pattern -->
    <pattern id="grid" width="40" height="40" patternUnits="userSpaceOnUse">
      <path d="M 40 0 L 0 0 0 40" fill="none" stroke="#1e293b" stroke-width="1" opacity="0.5"/>
    </pattern>

    <!-- Arrow Markers -->
    <marker id="arrow" viewBox="0 0 10 10" refX="8" refY="5" markerWidth="6" markerHeight="6" orient="auto">
      <path d="M 0 0 L 10 5 L 0 10 Z" fill="#64748b"/>
    </marker>

    <!-- SVG Styles -->
    <style>
      .node-title { font-family: 'Segoe UI', system-ui, sans-serif; font-size: 14px; font-weight: bold; fill: #f8fafc; text-anchor: middle; }
      .node-text { font-family: 'Segoe UI', system-ui, sans-serif; font-size: 20px; font-weight: bold; fill: #f8fafc; }
      .node-sub { font-family: 'Segoe UI', system-ui, sans-serif; font-size: 12px; fill: #94a3b8; }
      .label { font-family: 'Roboto Mono', monospace; font-size: 14px; fill: #cbd5e1; font-weight: bold; }
      .aws-logo { fill: #f8fafc; }
      .aws-smile { fill: #f97316; }
      
      @keyframes dashFlow {
        from { stroke-dashoffset: 16; }
        to { stroke-dashoffset: 0; }
      }
      .flow-line {
        stroke: #64748b;
        stroke-width: 3;
        fill: none;
        stroke-dasharray: 8 8;
        animation: dashFlow 1s linear infinite;
      }
    </style>

    <!-- AWS Logo Symbol (from Font Awesome paths) -->
    <symbol id="aws-logo" viewBox="0 0 640 512">
      <!-- letters "aws" -->
      <path class="aws-logo" d="M180.41 203.01c-.72 22.65 10.6 32.68 10.88 39.05a8.164 8.164 0 0 1-4.1 6.27l-12.8 8.96a10.66 10.66 0 0 1-5.63 1.92c-.43-.02-8.19 1.83-20.48-25.61a78.608 78.608 0 0 1-62.61 29.45c-16.28.89-60.4-9.24-58.13-56.21-1.59-38.28 34.06-62.06 70.93-60.05 7.1.02 21.6.37 46.99 6.27v-15.62c2.69-26.46-14.7-46.99-44.81-43.91-2.4.01-19.4-.5-45.84 10.11-7.36 3.38-8.3 2.82-10.75 2.82-7.41 0-4.36-21.48-2.94-24.2 5.21-6.4 35.86-18.35 65.94-18.18a76.857 76.857 0 0 1 55.69 17.28 70.285 70.285 0 0 1 17.67 52.36l-.01 69.29z M93.99 235.4c32.43-.47 46.16-19.97 49.29-30.47 2.46-10.05 2.05-16.41 2.05-27.4-9.67-2.32-23.59-4.85-39.56-4.87-15.15-1.14-42.82 5.63-41.74 32.26-1.24 16.79 11.12 31.4 29.96 30.48z M264.91 258.45c-7.86.72-11.52-4.86-12.68-10.37l-49.8-164.65c-.97-2.78-1.61-5.65-1.92-8.58a4.61 4.61 0 0 1 3.86-5.25c.24-.04-2.13 0 22.25 0 8.78-.88 11.64 6.03 12.55 10.37l35.72 140.83 33.16-140.83c.53-3.22 2.94-11.07 12.8-10.24h17.16c2.17-.18 11.11-.5 12.68 10.37l33.42 142.63L420.98 80.1c.48-2.18 2.72-11.37 12.68-10.37h19.72c.85-.13 6.15-.81 5.25 8.58-.43 1.85 3.41-10.66-52.75 169.9-1.15 5.51-4.82 11.09-12.68 10.37h-18.69c-10.94 1.15-12.51-9.66-12.68-10.75L328.67 110.7l-32.78 136.99c-.16 1.09-1.73 11.9-12.68 10.75h-18.3z M538.39 264.08c-5.88.01-33.92-.3-57.36-12.29a12.802 12.802 0 0 1-7.81-11.91v-10.75c0-8.45 6.2-6.9 8.83-5.89 10.04 4.06 16.48 7.14 28.81 9.6 36.65 7.53 52.77-2.3 56.72-4.48 13.15-7.81 14.19-25.68 5.25-34.95-10.48-8.79-15.48-9.12-53.13-21-4.64-1.29-43.7-13.61-43.79-52.36-.61-28.24 25.05-56.18 69.52-55.95 12.67-.01 46.43 4.13 55.57 15.62 1.35 2.09 2.02 4.55 1.92 7.04v10.11c0 4.44-1.62 6.66-4.87 6.66-7.71-.86-21.39-11.17-49.16-10.75-6.89-.36-39.89.91-38.41 24.97-.43 18.96 26.61 26.07 29.7 26.89 36.46 10.97 48.65 12.79 63.12 29.58 17.14 22.25 7.9 48.3 4.35 55.44-19.08 37.49-68.42 34.44-69.26 34.42z"/>
      <!-- orange smile/arrow -->
      <path class="aws-smile" d="M618.79 368.94c-70.03 51.72-171.69 79.25-258.49 79.25A469.127 469.127 0 0 1 2.83 327.46c-6.53-5.89-.77-13.96 7.17-9.47a637.37 637.37 0 0 0 316.88 84.12 630.22 630.22 0 0 0 241.59-49.55c11.78-5 21.77 7.8 10.12 16.38z M647.98 335.65c-8.96-11.52-59.28-5.38-81.81-2.69-6.79.77-7.94-5.12-1.79-9.47 40.07-28.17 105.88-20.1 113.44-10.63 7.55 9.47-2.05 75.41-39.56 106.91-5.76 4.87-11.27 2.3-8.71-4.1 8.44-21.25 27.39-68.49 18.43-80.02z"/>
    </symbol>

    <!-- Thumbnail gradients -->
    <linearGradient id="thumb-grad-1" x1="0%" y1="0%" x2="100%" y2="100%">
      <stop offset="0%" stop-color="#f43f5e"/>
      <stop offset="100%" stop-color="#881337"/>
    </linearGradient>
    <linearGradient id="thumb-grad-2" x1="0%" y1="0%" x2="100%" y2="100%">
      <stop offset="0%" stop-color="#38bdf8"/>
      <stop offset="100%" stop-color="#1e40af"/>
    </linearGradient>
    <linearGradient id="thumb-grad-3" x1="0%" y1="0%" x2="100%" y2="100%">
      <stop offset="0%" stop-color="#10b981"/>
      <stop offset="100%" stop-color="#064e3b"/>
    </linearGradient>

    <!-- Paths for Particles -->
    <path id="p-extract" d="M 210 200 L 310 200" fill="none"/>
    <path id="p-load" d="M 610 200 L 710 200" fill="none"/>
    <path id="p-viz" d="M 940 200 L 1040 200" fill="none"/>

    <!-- YouTuber / User Silhouette Symbol -->
    <symbol id="icon-user" viewBox="0 0 16 16" overflow="visible">
      <circle cx="8" cy="6" r="3" />
      <path d="M 2 14.5 C 2 11, 14 11, 14 14.5" />
      <!-- Larger YouTube Badge overlapping bottom right -->
      <rect x="8.5" y="8.5" width="11" height="8" rx="1.5" fill="#ef4444" />
      <polygon points="12.5,10.5 16.5,12.5 12.5,14.5" fill="white" />
    </symbol>
  </defs>

  <!-- Base Background & Grid -->
  <rect width="100%" height="100%" fill="url(#bg-grad)"/>
  <rect width="100%" height="100%" fill="url(#grid)"/>

  <!-- ==================== ORCHESTRATION LINES ==================== -->
  
  <text x="460" y="350" font-family="'Segoe UI', sans-serif" font-size="14" font-weight="bold" fill="#94a3b8" text-anchor="middle">Automate ETL</text>
  
  <!-- Left Bracket (to Extract) -->
  <path d="M 390 345 L 260 345 L 260 215" stroke="#475569" stroke-width="2" fill="none" marker-end="url(#arrow)"/>
  
  <!-- Right Bracket (to Load) -->
  <path d="M 530 345 L 660 345 L 660 215" stroke="#475569" stroke-width="2" fill="none" marker-end="url(#arrow)"/>


  <!-- ==================== MAIN DATA FLOW LINES ==================== -->
  
  <!-- Extract -->
  <path d="M 210 200 L 310 200" class="flow-line" marker-end="url(#arrow)"/>
  <text x="260" y="185" class="label" text-anchor="middle">Extract</text>

  <!-- Load -->
  <path d="M 610 200 L 710 200" class="flow-line" marker-end="url(#arrow)"/>
  <text x="660" y="185" class="label" text-anchor="middle">Load</text>

  <!-- Visualize -->
  <path d="M 940 200 L 1040 200" class="flow-line" marker-end="url(#arrow)"/>
  <text x="990" y="185" class="label" text-anchor="middle">Visualize</text>


  <!-- ==================== NODES ==================== -->

  <!-- 1. YouTube API Node -->
  <g transform="translate(40, 160)">
    <rect width="150" height="80" rx="12" fill="url(#panel-grad)" stroke="#ef4444" stroke-width="2" filter="url(#panel-glow)"/>
    <g transform="translate(15, 25)">
      <rect x="0" y="0" width="40" height="30" rx="8" fill="#ef4444"/>
      <polygon points="15,8 15,22 27,15" fill="#ffffff"/>
    </g>
    <text x="65" y="42" font-family="'Segoe UI', sans-serif" font-size="20" font-weight="bold" fill="#f8fafc">YouTube</text>
    <text x="65" y="60" class="node-sub">API</text>
  </g>

  <!-- 1b. Extracted Data Visualization (below YouTube API) -->
  <g transform="translate(40, 275)">
    <!-- Panel Background -->
    <rect width="150" height="175" rx="12" fill="url(#panel-grad)" stroke="#ef4444" stroke-width="1.5" opacity="0.7" filter="url(#panel-glow)"/>
    <text x="75" y="22" class="node-sub" text-anchor="middle">Sources</text>
    
    <!-- Source Channels (Activity Cards) -->
    <g transform="translate(12, 38)">
      <!-- Channel Card 1 -->
      <g>
        <circle cx="12" cy="12" r="12" fill="url(#thumb-grad-1)" opacity="0.9"/>
        <use href="#icon-user" x="0" y="0" width="24" height="24" fill="white" opacity="0.8"/>
        <text x="42" y="17" font-family="'Segoe UI', sans-serif" font-size="11" fill="#94a3b8">Channel 1</text>
        <!-- Waveform Signal -->
        <path d="M 102 14 Q 106 9, 110 14 T 117 14 T 124 14" stroke="#ef4444" stroke-width="1" fill="none" opacity="0.6">
           <animate attributeName="d" values="M 102 14 Q 106 9, 110 14 T 117 14 T 124 14; M 102 14 Q 106 19, 110 14 T 117 14 T 124 14; M 102 14 Q 106 9, 110 14 T 117 14 T 124 14" dur="0.8s" repeatCount="indefinite"/>
        </path>
      </g>
      
      <!-- Channel Card 2 -->
      <g transform="translate(0, 35)">
        <circle cx="12" cy="12" r="12" fill="url(#thumb-grad-2)" opacity="0.9"/>
        <use href="#icon-user" x="0" y="0" width="24" height="24" fill="white" opacity="0.8"/>
        <text x="42" y="17" font-family="'Segoe UI', sans-serif" font-size="11" fill="#94a3b8">Channel 2</text>
        <path d="M 102 14 Q 106 18, 110 14 T 117 14 T 124 14" stroke="#38bdf8" stroke-width="1" fill="none" opacity="0.6">
           <animate attributeName="d" values="M 102 14 Q 106 18, 110 14 T 117 14 T 124 14; M 102 14 Q 106 10, 110 14 T 117 14 T 124 14; M 102 14 Q 106 18, 110 14 T 117 14 T 124 14" dur="1.2s" repeatCount="indefinite"/>
        </path>
      </g>

      <!-- Channel Card 3 -->
      <g transform="translate(0, 70)">
        <circle cx="12" cy="12" r="12" fill="url(#thumb-grad-3)" opacity="0.9"/>
        <use href="#icon-user" x="0" y="0" width="24" height="24" fill="white" opacity="0.8"/>
        <text x="42" y="17" font-family="'Segoe UI', sans-serif" font-size="11" fill="#94a3b8">Channel 3</text>
        <path d="M 102 14 Q 106 12, 110 14 T 117 14 T 124 14" stroke="#10b981" stroke-width="1" fill="none" opacity="0.6">
           <animate attributeName="d" values="M 102 14 Q 106 12, 110 14 T 117 14 T 124 14; M 102 14 Q 106 16, 110 14 T 117 14 T 124 14; M 102 14 Q 106 12, 110 14 T 117 14 T 124 14" dur="1s" repeatCount="indefinite"/>
        </path>
      </g>
    </g>

    <!-- Status Indicator -->
    <g transform="translate(10, 150)">
      <rect width="130" height="14" rx="4" fill="#0f172a" stroke="#ef4444" stroke-width="0.5" opacity="0.8"/>
      <text x="65" y="10" font-family="'Segoe UI', sans-serif" font-size="8" fill="#ef4444" text-anchor="middle" font-weight="bold" letter-spacing="1">
        DATA EXTRACTION...
        <animate attributeName="opacity" values="1;0.4;1" dur="1.5s" repeatCount="indefinite"/>
      </text>
    </g>
  </g>

  <!-- Connection to YouTube Node -->
  <path d="M 115 275 L 115 240" stroke="#ef4444" stroke-width="2" stroke-dasharray="3 3" opacity="0.4"/>
  <circle r="2.5" fill="#ef4444" filter="url(#glow)">
    <animateMotion dur="0.8s" repeatCount="indefinite" path="M 115 275 L 115 240"/>
  </circle>
  <circle r="2.5" fill="#ef4444" filter="url(#glow)">
    <animateMotion dur="0.8s" begin="0.4s" repeatCount="indefinite" path="M 115 275 L 115 240"/>
  </circle>

  <!-- 2. Transform Node (Python, Pandas, Hugging Face) -->
  <g transform="translate(330, 90)">
    <text x="130" y="-15" class="node-title">Transform</text>
    <rect width="260" height="220" rx="15" fill="url(#panel-grad)" stroke="url(#border-transform)" stroke-width="2" filter="url(#panel-glow)"/>
    
    <!-- Python Row -->
    <g transform="translate(30, 20)">
      <!-- Official Python Logo Path -->
      <svg x="12" y="0" width="32" height="32" viewBox="0 0 512 512">
        <path fill-rule="evenodd" d="M193.46 249.056a65.316 65.316 0 0 1 11.586-1.041l-3.122-.015h103.823c4.503 0 8.806-.617 12.908-1.754 19.37-5.363 33.345-22.537 33.345-43.663v-87.224c0-24.832-21.15-43.484-46.289-47.606-15.931-2.624-39.258-3.827-55.089-3.749-15.829.086-30.981 1.404-44.277 3.749C167.143 74.576 160 88.928 160 115.359V144h96v16H128.82c-35.628 0-64.538 42.571-64.813 95.242-.002.253-.007.505-.007.758 0 9.523.94 18.72 2.685 27.404C74.648 323.07 99.451 352 128.82 352H144v-45.935c0-26.827 20.146-51.733 49.46-57.009zm10.196-122.054c-9.592 0-17.384-7.785-17.384-17.403 0-9.664 7.774-17.52 17.384-17.52 9.574 0 17.399 7.855 17.399 17.52.001 9.618-7.809 17.403-17.399 17.403z" fill="#38bdf8"/>
        <path fill-rule="evenodd" d="M443.951 222.543C434.78 186.021 411.033 160 383.18 160H368v40.672c0 33.915-22.286 58.474-49.489 62.681a53.943 53.943 0 0 1-8.301.646H206.351a51.41 51.41 0 0 0-13.049 1.672C174.18 270.689 160 286.6 160 307.236v87.227c0 24.832 24.977 39.426 49.481 46.551 29.327 8.531 61.267 10.068 96.366 0C329.15 434.354 352 420.893 352 394.463V368h-96v-16h127.18c25.24 0 47.107-21.365 57.814-52.549C445.474 286.404 448 271.641 448 256c0-11.768-1.433-23.038-4.049-33.457zM307.867 382.82c9.59 0 17.381 7.785 17.381 17.4 0 9.65-7.791 17.521-17.381 17.521-9.577 0-17.399-7.871-17.399-17.521 0-9.63 7.806-17.4 17.399-17.4z" fill="#fcd34d"/>
      </svg>
      <text x="60" y="25" class="node-text">Python</text>
    </g>

    <!-- Divider -->
    <line x1="40" y1="70" x2="220" y2="70" stroke="#334155" stroke-width="1" stroke-dasharray="4 4"/>

    <!-- Pandas Row -->
    <g transform="translate(30, 90)">
      <svg x="12" y="0" width="32" height="32" viewBox="0 0 210.21 280.43">
        <!-- Official pandas mark (rect-based branding) -->
        <rect x="74.51" y="43.03" width="24.09" height="50.02" fill="#1d4ed8" />
        <rect x="74.51" y="145.78" width="24.09" height="50.02" fill="#1d4ed8" />
        <rect x="74.51" y="107.65" width="24.09" height="23.6" fill="#ffca00" />
        <rect x="35.81" y="84.15" width="24.09" height="166.27" fill="#1d4ed8" />
        <rect x="112.41" y="187.05" width="24.09" height="50.02" fill="#1d4ed8" />
        <rect x="112.41" y="84.21" width="24.09" height="50.02" fill="#1d4ed8" />
        <rect x="112.41" y="148.84" width="24.09" height="23.6" fill="#e70488" />
        <rect x="150.3" y="30" width="24.09" height="166.27" fill="#1d4ed8" />
      </svg>
      <text x="60" y="25" class="node-text">pandas</text>
    </g>

    <!-- Divider -->
    <line x1="40" y1="140" x2="220" y2="140" stroke="#334155" stroke-width="1" stroke-dasharray="4 4"/>

    <!-- Hugging Face Row -->
    <g transform="translate(30, 160)">
      <svg x="12" y="0" width="32" height="32" viewBox="0 0 256 256">
        <path d="M230.721 172.7C230.183 170.673 229.313 168.75 228.146 167.008C228.396 166.091 228.587 165.159 228.714 164.217C229.543 158.241 227.471 152.77 223.567 148.537C221.452 146.225 219.185 144.698 216.784 143.761C218.36 137.018 219.157 130.117 219.161 123.193C219.161 120.03 218.982 116.932 218.682 113.88C218.526 112.356 218.337 110.836 218.115 109.32C217.428 104.847 216.408 100.431 215.064 96.11C214.183 93.2707 213.164 90.476 212.01 87.736C210.281 83.6782 208.262 79.75 205.969 75.982C204.465 73.475 202.827 71.0508 201.062 68.72C200.197 67.543 199.296 66.3938 198.358 65.274C195.58 61.898 192.561 58.7277 189.325 55.788C188.25 54.7997 187.145 53.8453 186.01 52.926C184.893 51.9943 183.751 51.0927 182.586 50.222C180.241 48.4766 177.818 46.8392 175.324 45.315C161.543 36.945 145.382 32.145 128.109 32.145C77.817 32.145 37.057 72.907 37.057 123.196C37.055 130.208 37.867 137.196 39.477 144.02C37.317 144.958 35.247 146.42 33.327 148.535C29.424 152.766 27.351 158.217 28.18 164.193C28.306 165.142 28.495 166.082 28.747 167.006C27.5811 168.749 26.7117 170.673 26.174 172.7C24.974 177.261 25.369 181.374 26.894 184.978C25.236 189.688 25.65 194.704 27.809 199.065C29.379 202.25 31.626 204.714 34.396 206.916C37.689 209.534 41.811 211.758 46.783 213.892C52.715 216.422 59.956 218.799 63.249 219.671C71.755 221.873 79.911 223.269 88.177 223.337C99.954 223.446 110.096 220.677 117.357 213.59C120.924 214.027 124.515 214.246 128.109 214.244C131.906 214.236 135.699 213.997 139.467 213.529C146.711 220.661 156.892 223.455 168.712 223.343C176.977 223.277 185.133 221.881 193.617 219.676C196.932 218.804 204.17 216.427 210.105 213.897C215.077 211.76 219.199 209.536 222.514 206.922C225.263 204.719 227.508 202.256 229.079 199.071C231.26 194.709 231.652 189.693 230.017 184.983C231.527 181.379 231.92 177.257 230.721 172.7Z" fill="white"/>
        <path d="M221.784 183.816C222.786 182.312 223.458 180.613 223.756 178.831C224.053 177.048 223.97 175.223 223.512 173.475C222.848 170.952 221.476 168.854 219.615 167.347C220.512 165.873 221.1 164.233 221.344 162.525C221.881 158.811 220.648 155.103 217.874 152.079C215.716 149.726 212.662 148.431 209.282 148.431C208.889 148.431 208.489 148.452 208.081 148.492C210.643 140.304 211.942 131.774 211.933 123.195C211.933 76.5231 174.097 38.6851 127.424 38.6851C80.75 38.6851 42.9099 76.5191 42.9099 123.195C42.9015 131.752 44.1936 140.261 46.742 148.43H46.6519C43.2719 148.43 40.219 149.724 38.06 152.077C35.287 155.098 34.0529 158.81 34.5899 162.523C34.8346 164.231 35.4231 165.872 36.3199 167.346C34.4579 168.852 33.086 170.95 32.422 173.473C31.9642 175.222 31.8817 177.047 32.1799 178.83C32.4781 180.612 33.1501 182.312 34.1519 183.816C33.9739 184.094 33.8099 184.381 33.6549 184.676C31.9849 187.847 31.877 191.43 33.352 194.767C35.588 199.824 41.1419 203.808 51.9289 208.085C58.6359 210.745 64.779 212.446 64.833 212.461C73.705 214.762 81.729 215.931 88.675 215.931C100.081 215.931 108.591 212.811 114.026 206.647C123.222 208.106 132.594 208.052 141.773 206.489C147.201 212.757 155.76 215.931 167.262 215.931C174.208 215.931 182.232 214.762 191.103 212.461C191.158 212.446 197.298 210.745 204.008 208.085C214.795 203.808 220.35 199.824 222.585 194.767C224.059 191.43 223.952 187.847 222.281 184.676C222.129 184.379 221.961 184.091 221.784 183.816ZM110.137 196.997C109.669 197.815 109.168 198.614 108.635 199.391C107.23 201.448 105.382 203.02 103.237 204.188C99.1369 206.424 93.947 207.205 88.675 207.205C80.346 207.205 71.808 205.256 67.023 204.015C66.787 203.954 37.689 195.735 41.373 188.739C41.993 187.562 43.0129 187.092 44.2979 187.092C49.4849 187.092 58.9299 194.816 62.9889 194.816C63.8959 194.816 64.5359 194.43 64.7969 193.488C66.5269 187.284 38.5039 184.676 40.8639 175.692C41.2799 174.102 42.41 173.456 43.998 173.456C50.856 173.455 66.248 185.516 69.467 185.516C69.714 185.516 69.8909 185.443 69.9869 185.291C70.0009 185.268 70.015 185.246 70.028 185.222C71.539 182.727 70.6719 180.913 60.3209 174.573L59.3269 173.968C47.9359 167.074 39.9409 162.925 44.4879 157.975C45.0109 157.404 45.7529 157.151 46.6539 157.151C47.7219 157.151 49.0149 157.508 50.4389 158.108C56.4549 160.645 64.793 167.564 68.276 170.581C68.8239 171.057 69.3683 171.538 69.9089 172.022C69.9089 172.022 74.319 176.608 76.985 176.608C77.599 176.608 78.1199 176.366 78.4729 175.768C80.364 172.58 60.9099 157.838 59.8129 151.755C59.0689 147.634 60.3349 145.546 62.6749 145.546C63.7879 145.546 65.1459 146.02 66.6449 146.971C71.2949 149.922 80.2729 165.35 83.5599 171.352C84.6619 173.363 86.5429 174.213 88.2379 174.213C91.6009 174.213 94.2299 170.87 88.5459 166.622C80.0029 160.23 83.001 149.782 87.078 149.139C87.252 149.111 87.4279 149.097 87.6029 149.097C91.3109 149.097 92.9459 155.486 92.9459 155.486C92.9459 155.486 97.7399 167.524 105.975 175.753C113.447 183.222 114.491 189.351 110.137 196.997ZM128.109 214.244C126.311 214.244 124.524 214.186 122.753 214.072C122.955 214.129 123.159 214.183 123.363 214.234C124.931 214.241 126.511 214.244 128.109 214.244Z" fill="#FF9D00"/>
        <path d="M108.638 199.391C114.64 190.59 114.214 183.984 105.98 175.754C97.7441 167.523 92.951 155.487 92.951 155.487C92.951 155.487 91.1621 148.496 87.0821 149.138C83.0021 149.78 80.0091 160.227 88.5521 166.622C97.0941 173.017 86.8521 177.353 83.5641 171.352C80.2761 165.35 71.299 149.923 66.645 146.972C61.991 144.021 58.718 145.675 59.815 151.757C60.36 154.776 65.4281 159.929 70.1631 164.743C74.9671 169.627 79.428 174.163 78.474 175.768C76.581 178.955 69.9141 172.023 69.9141 172.023C69.9141 172.023 49.038 153.025 44.494 157.976C40.304 162.539 46.765 166.418 56.7211 172.397C57.5671 172.905 58.4391 173.429 59.3321 173.969C70.7231 180.865 71.609 182.684 69.992 185.293C69.395 186.257 65.582 183.968 60.892 181.153C52.897 176.352 42.3551 170.023 40.8661 175.688C39.5781 180.591 47.334 183.595 54.368 186.32C60.228 188.59 65.5881 190.666 64.7991 193.484C63.9821 196.406 59.5531 193.969 54.7121 191.305C49.2771 188.314 43.3221 185.038 41.3731 188.735C37.6901 195.725 66.7831 203.954 67.0231 204.015C76.4231 206.453 100.295 211.619 108.638 199.391ZM147.303 199.391C141.301 190.59 141.727 183.984 149.962 175.754C158.197 167.523 162.99 155.487 162.99 155.487C162.99 155.487 164.779 148.496 168.859 149.138C172.939 149.78 175.932 160.227 167.39 166.622C158.847 173.017 169.089 177.353 172.377 171.352C175.666 165.35 184.637 149.923 189.291 146.972C193.945 144.021 197.22 145.675 196.122 151.757C195.578 154.776 190.509 159.929 185.774 164.744C180.97 169.628 176.509 174.163 177.462 175.768C179.355 178.955 186.027 172.019 186.027 172.019C186.027 172.019 206.902 153.022 211.448 157.973C215.637 162.535 209.176 166.415 199.219 172.394C198.348 172.917 197.478 173.441 196.609 173.966C185.218 180.862 184.332 182.681 185.948 185.289C186.546 186.254 190.359 183.964 195.048 181.149C203.044 176.349 213.586 170.019 215.075 175.685C216.364 180.588 208.607 183.592 201.573 186.317C195.713 188.587 190.353 190.663 191.141 193.481C191.957 196.402 196.385 193.965 201.225 191.301C206.66 188.31 212.616 185.032 214.564 188.732C218.248 195.726 189.15 203.947 188.915 204.007C179.515 206.453 155.643 211.619 147.303 199.391Z" fill="#FFD21E"/>
        <path d="M152.047 102.567C153.229 102.985 154.108 104.257 154.944 105.468C156.074 107.104 157.126 108.627 158.74 107.769C160.644 106.756 162.205 105.202 163.225 103.302C164.246 101.402 164.681 99.2427 164.475 97.096C164.321 95.4908 163.813 93.9398 162.987 92.5548C162.161 91.1697 161.038 89.985 159.7 89.0862C158.361 88.1874 156.839 87.5968 155.245 87.3569C153.65 87.117 152.022 87.2339 150.478 87.699C148.934 88.1639 147.513 88.9653 146.316 90.0455C145.119 91.1257 144.176 92.4578 143.556 93.946C142.936 95.4342 142.653 97.0415 142.728 98.652C142.804 100.263 143.235 101.836 143.992 103.26C144.74 104.667 146.4 104.003 148.152 103.302C149.525 102.753 150.956 102.181 152.047 102.567ZM100.672 102.567C99.49 102.985 98.611 104.258 97.775 105.468C96.645 107.105 95.592 108.627 93.979 107.769C91.5845 106.501 89.7482 104.386 88.8278 101.838C87.9075 99.2895 87.9692 96.4896 89.0008 93.9841C90.0324 91.4786 91.9601 89.4471 94.408 88.2855C96.856 87.1239 99.6488 86.9156 102.242 87.701C104.307 88.3228 106.141 89.5427 107.513 91.2065C108.885 92.8704 109.732 94.9035 109.949 97.049C110.165 99.1945 109.74 101.356 108.728 103.26C107.979 104.667 106.319 104.003 104.567 103.303C103.193 102.753 101.764 102.181 100.672 102.567ZM144.099 149.318C152.242 142.903 155.233 132.429 155.233 125.977C155.233 120.877 151.802 122.482 146.309 125.202L145.999 125.355C140.957 127.852 134.245 131.177 126.877 131.177C119.508 131.177 112.796 127.852 107.755 125.354C102.084 122.545 98.527 120.783 98.527 125.978C98.527 132.634 101.709 143.563 110.443 149.912C111.596 147.573 113.219 145.497 115.211 143.813C117.202 142.129 119.52 140.874 122.018 140.126C122.89 139.866 123.788 141.367 124.707 142.904C125.594 144.386 126.501 145.902 127.423 145.902C128.406 145.902 129.371 144.408 130.314 142.95C131.299 141.425 132.26 139.94 133.189 140.237C137.864 141.738 141.775 144.993 144.099 149.318Z" fill="#32343D"/>
        <path d="M144.097 149.317C139.856 152.659 134.219 154.9 126.878 154.9C119.981 154.9 114.587 152.922 110.443 149.911C111.596 147.572 113.219 145.495 115.211 143.812C117.202 142.128 119.52 140.873 122.018 140.125C123.73 139.614 125.545 145.901 127.423 145.901C129.433 145.901 131.37 139.655 133.189 140.236C137.863 141.738 141.773 144.993 144.097 149.317Z" fill="#FF323D"/>
        <path d="M81.2 111.64C80.2312 112.288 79.1173 112.687 77.9572 112.801C76.7971 112.916 75.6267 112.742 74.55 112.295C73.6893 111.94 72.9072 111.418 72.2488 110.759C71.5903 110.101 71.0684 109.319 70.713 108.458C70.267 107.381 70.0935 106.211 70.2082 105.051C70.3228 103.891 70.7219 102.777 71.37 101.808C72.1488 100.642 73.2558 99.7333 74.5512 99.1967C75.8466 98.6601 77.272 98.5197 78.6471 98.7935C80.0223 99.0672 81.2853 99.7427 82.2764 100.734C83.2675 101.726 83.9422 102.99 84.215 104.365C84.4883 105.74 84.3477 107.165 83.8113 108.46C83.2748 109.755 82.3654 110.861 81.2 111.64ZM182.613 111.64C181.644 112.288 180.53 112.687 179.37 112.801C178.209 112.916 177.039 112.742 175.962 112.295C175.101 111.939 174.319 111.418 173.661 110.759C173.003 110.101 172.481 109.319 172.125 108.458C171.68 107.381 171.507 106.211 171.621 105.051C171.736 103.891 172.135 102.777 172.782 101.808C173.364 100.936 174.133 100.205 175.032 99.6658C175.931 99.1269 176.938 98.7942 177.981 98.6917C179.025 98.5891 180.078 98.7193 181.064 99.0728C182.051 99.4264 182.947 99.9944 183.688 100.736C184.68 101.727 185.355 102.99 185.628 104.365C185.902 105.74 185.761 107.165 185.224 108.46C184.687 109.755 183.779 110.861 182.613 111.64Z" fill="#FFAD03"/>
      </svg>
      <text x="60" y="25" class="node-text">Hugging Face</text>
    </g>
  </g>

  <!-- 3. MySQL / AWS Node -->
  <g transform="translate(730, 110)">
    <rect width="190" height="180" rx="12" fill="url(#panel-grad)" stroke="#f97316" stroke-width="2" filter="url(#panel-glow)"/>
    
    <!-- Official MySQL Logo -->
    <g transform="translate(30, 12)">
      <svg x="0" y="0" width="130" height="60" viewBox="0 0 204.8 105.765">
        <path d="M0 96.334h6.747V69.7l10.445 23.227c1.232 2.8 2.92 3.806 6.228 3.806s4.93-.995 6.164-3.806L40.03 69.7v26.644h6.748v-26.6c0-2.595-1.04-3.85-3.18-4.498-5.125-1.6-8.564-.216-10.12 3.244l-10.25 22.923L13.3 68.48c-1.492-3.46-4.995-4.844-10.12-3.244C1.038 65.885 0 67.14 0 69.734v26.6zm52.386-21.686h6.745v14.68c-.063.798.256 2.67 3.952 2.727 1.886.03 14.554 0 14.672 0v-17.48h6.76c.03 0-.007 23.834-.006 23.936.037 5.878-7.294 7.155-10.672 7.254H52.533v-4.54l21.342-.001c4.342-.46 3.83-2.617 3.83-3.344v-1.77h-14.34c-6.672-.06-10.92-2.973-10.973-6.323-.005-.3.144-14.995-.004-15.14z" fill="#f8fafc"/>
        <path d="M89.716 96.334h19.398c2.27 0 4.477-.475 6.23-1.298 2.92-1.34 4.347-3.157 4.347-5.536v-4.93c0-1.947-1.622-3.763-4.8-4.974-1.687-.65-3.763-.995-5.774-.995h-8.175c-2.724 0-4.022-.822-4.346-2.638-.065-.216-.065-.4-.065-.606v-3.07c0-.173 0-.347.065-.563.324-1.384 1.038-1.774 3.438-2 .195 0 .454-.044.65-.044h19.268v-4.497h-18.944c-2.725 0-4.152.173-5.45.562C91.532 67 89.78 69 89.78 72.46v3.936c0 3.028 3.44 5.623 9.212 6.228.65.043 1.298.086 1.946.086h7.007c.26 0 .52 0 .714.044 2.14.173 3.05.562 3.698 1.34.4.4.52.78.52 1.2v3.936c0 .476-.324 1.082-.973 1.6-.584.52-1.557.865-2.855.952-.26 0-.454.043-.713.043h-18.62v4.498zm72.064-7.828c0 4.628 3.438 7.223 10.38 7.742a29.45 29.45 0 0 0 1.946.086h17.582v-4.498h-17.712c-3.957 0-5.45-.995-5.45-3.374v-23.27h-6.747v23.312zm-37.785.234V72.705c0-4.074 2.86-6.545 8.516-7.325a12.94 12.94 0 0 1 1.821-.13h12.807a13.87 13.87 0 0 1 1.886.13c5.656.78 8.516 3.25 8.516 7.325V88.74c0 3.305-1.215 5.074-4.015 6.227l6.646 6h-7.834l-5.377-4.854-5.413.343h-7.216c-1.235 0-2.535-.174-3.966-.564-4.3-1.17-6.37-3.424-6.37-7.152zm7.283-.4c0 .217.065.433.13.694.4 1.864 2.145 2.904 4.8 2.904h6.13l-5.63-5.083h7.834l4.9 4.433c.905-.482 1.5-1.22 1.7-2.167.065-.216.065-.433.065-.65V73.096c0-.173 0-.4-.065-.607-.4-1.733-2.146-2.73-4.746-2.73H136.22c-3 0-4.94 1.3-4.94 3.337v15.256z" fill="#f59e0b"/><g fill="#38bdf8">
          <path d="M197.624 57.73c-4.147-.112-7.316.273-10.024 1.415-.77.325-1.997.333-2.123 1.298.423.443.49 1.105.825 1.65.647 1.047 1.74 2.45 2.713 3.184 1.064.803 2.16 1.663 3.303 2.36 2.03 1.238 4.296 1.945 6.25 3.184 1.152.73 2.296 1.65 3.42 2.476.555.408.93 1.042 1.65 1.297v-.118c-.38-.483-.477-1.147-.825-1.65l-1.533-1.533c-1.5-2-3.402-3.737-5.425-5.19-1.613-1.158-5.224-2.722-5.897-4.6l-.118-.118c1.144-.13 2.483-.543 3.54-.825 1.773-.475 3.358-.353 5.19-.825l2.477-.708v-.472c-.926-.95-1.586-2.207-2.595-3.066-2.64-2.25-5.523-4.495-8.49-6.37-1.646-1.04-3.68-1.714-5.425-2.595-.587-.296-1.618-.45-2.005-.944-.916-1.168-1.415-2.65-2.122-4-1.48-2.85-2.934-5.964-4.246-8.963-.895-2.045-1.48-4.062-2.594-5.897-5.355-8.804-11.12-14.118-20.048-19.34-1.9-1.11-4.187-1.55-6.605-2.123l-3.892-.236c-.792-.33-1.616-1.3-2.36-1.77-2.958-1.87-10.545-5.933-12.736-.6-1.383 3.373 2.067 6.664 3.302 8.374.866 1.2 1.976 2.543 2.594 3.892.407.886.478 1.775.826 2.713.857 2.3 1.603 4.823 2.712 6.958.56 1.08 1.178 2.218 1.887 3.184.435.593 1.18.854 1.297 1.77-.728 1.02-.77 2.6-1.18 3.892-1.843 5.812-1.148 13.035 1.533 17.337.823 1.32 2.76 4.152 5.425 3.066 2.33-.95 1.8-3.89 2.477-6.486.15-.59.058-1.02.354-1.415v.118l2.123 4.245c1.57 2.53 4.36 5.175 6.722 6.96 1.225.925 2.2 2.525 3.774 3.066v-.118h-.118c-.307-.48-.787-.677-1.18-1.06-.923-.905-1.95-2.03-2.713-3.066-2.15-2.918-4.048-6.11-5.778-9.435-.826-1.587-1.545-3.338-2.24-4.953-.268-.623-.265-1.564-.825-1.887-.763 1.184-1.887 2.14-2.477 3.538-.944 2.234-1.066 4.958-1.415 7.784-.207.074-.115.023-.236.118-1.642-.396-2.22-2.087-2.83-3.538-1.544-3.67-1.83-9.576-.472-13.798.35-1.092 1.94-4.534 1.297-5.543-.307-1.007-1.32-1.6-1.887-2.36-.7-.95-1.402-2.204-1.887-3.302-1.264-2.86-1.854-6.07-3.184-8.963-.636-1.382-1.71-2.78-2.594-4-.978-1.36-2.073-2.364-2.83-4-.27-.585-.636-1.52-.236-2.123a.93.93 0 0 1 .708-.708c.684-.527 2.59.175 3.302.472 1.89.786 3.47 1.534 5.072 2.595.77.5 1.547 1.496 2.476 1.77h1.06c1.66.382 3.52.12 5.07.59 2.742.833 5.198 2.13 7.43 3.538 6.798 4.292 12.355 10.402 16.157 17.7.612 1.173.876 2.294 1.415 3.538 1.087 2.5 2.456 5.093 3.538 7.547 1.08 2.45 2.13 4.92 3.656 6.958.802 1.07 3.9 1.646 5.307 2.24.987.417 2.603.852 3.538 1.415 1.785 1.077 3.515 2.36 5.19 3.54.837.59 3.41 1.883 3.538 2.948z" />
        </g>
      </svg>
      <text x="65" y="100" class="node-sub" text-anchor="middle">Hosted on RDS</text>
    </g>

    <!-- AWS Logo & RDS Icon -->
    <g transform="translate(0, 115)">
      <g transform="translate(47, 12)">
        <use href="#aws-logo" x="0" y="0" width="45" height="36"/>
      </g>
      
      <!-- RDS Icon (36x36) -->
      <g transform="translate(107, 12)">
        <rect x="0" y="0" width="36" height="36" rx="6" fill="#a855f7" opacity="0.9"/>
        <ellipse cx="18" cy="13" rx="10" ry="4" fill="none" stroke="#fff" stroke-width="1.5"/>
        <path d="M 8 13 L 8 23 A 10 4 0 0 0 28 23 L 28 13" fill="none" stroke="#fff" stroke-width="1.5"/>
        <path d="M 18 18 L 23 29 M 18 18 L 13 29 M 8 23 L 3 29 M 28 23 L 33 29" stroke="#fff" stroke-width="1" opacity="0.5"/>
      </g>
    </g>
  </g>

  <!-- 4. Power BI Node + Dashboards -->
  <g transform="translate(1060, 150)">
    <!-- Connector to Line Chart -->
    <path d="M 80 100 L 80 130" stroke="#475569" stroke-width="2" stroke-dasharray="4 4" fill="none"/>
    <circle cx="80" cy="100" r="2.5" fill="#38bdf8">
       <animate attributeName="cy" values="100;130;100" dur="2s" repeatCount="indefinite"/>
    </circle>

    <!-- Connector to Donut Chart -->
    <path d="M 80 230 L 80 260" stroke="#475569" stroke-width="2" stroke-dasharray="4 4" fill="none"/>
    <circle cx="80" cy="230" r="2.5" fill="#10b981">
       <animate attributeName="cy" values="230;260;230" dur="2s" begin="1s" repeatCount="indefinite"/>
    </circle>

    <!-- Main Power BI Block -->
    <rect width="160" height="100" rx="12" fill="url(#panel-grad)" stroke="#eab308" stroke-width="2" filter="url(#panel-glow)"/>
    <g transform="translate(15, 25)">
      <svg width="40" height="40" viewBox="0 0 630 630">
        <defs>
          <linearGradient x1="50%" y1="0%" x2="50%" y2="100%" id="pbi-grad-1">
            <stop stop-color="#EBBB14" offset="0%"></stop>
            <stop stop-color="#B25400" offset="100%"></stop>
          </linearGradient>
          <linearGradient x1="50%" y1="0%" x2="50%" y2="100%" id="pbi-grad-2">
            <stop stop-color="#F9E583" offset="0%"></stop>
            <stop stop-color="#DE9800" offset="100%"></stop>
          </linearGradient>
          <linearGradient x1="50%" y1="0%" x2="50%" y2="100%" id="pbi-grad-3">
            <stop stop-color="#F9E68B" offset="0%"></stop>
            <stop stop-color="#F3CD32" offset="100%"></stop>
          </linearGradient>
        </defs>
        <g transform="translate(77.5, 0)">
          <rect fill="url(#pbi-grad-1)" x="256" y="0" width="219" height="630" rx="26"></rect>
          <path d="M346,604 L346,630 L320,630 L153,630 C138.640597,630 127,618.359403 127,604 L127,183 C127,168.640597 138.640597,157 153,157 L320,157 C334.359403,157 346,168.640597 346,183 L346,604 Z" fill="url(#pbi-grad-2)"></path>
          <path d="M219,604 L219,630 L193,630 L26,630 C11.6405965,630 1.75851975e-15,618.359403 0,604 L0,341 C-1.75851975e-15,326.640597 11.6405965,315 26,315 L193,315 C207.359403,315 219,326.640597 219,341 L219,604 Z" fill="url(#pbi-grad-3)"></path>
        </g>
      </svg>
    </g>
    <text x="100" y="55" font-family="'Segoe UI', sans-serif" font-size="18" font-weight="bold" fill="#f8fafc" text-anchor="middle">Power BI</text>

    <!-- Line Chart Panel -->
    <g transform="translate(0, 130)">
      <rect width="160" height="100" rx="10" fill="url(#panel-grad)" stroke="#334155" stroke-width="1.5"/>
      <text x="15" y="20" class="node-sub">Engagement ↗</text>
      
      <!-- Gridlines -->
      <line x1="15" y1="40" x2="145" y2="40" stroke="#334155" stroke-width="1" stroke-dasharray="2 2"/>
      <line x1="15" y1="65" x2="145" y2="65" stroke="#334155" stroke-width="1" stroke-dasharray="2 2"/>
      
      <!-- Sparkline and Area -->
      <path id="sparkline-path" d="M 15 75 Q 30 50 50 65 T 90 45 T 145 35" fill="none" stroke="#38bdf8" stroke-width="2" stroke-linecap="round"/>
      <path d="M 15 75 Q 30 50 50 65 T 90 45 T 145 35 L 145 90 L 15 90 Z" fill="url(#line-fill)"/>
      
      <!-- Animated glowing point along the path -->
      <circle r="3" fill="#ffffff" filter="url(#glow)">
        <animateMotion dur="4s" repeatCount="indefinite">
          <mpath href="#sparkline-path"/>
        </animateMotion>
      </circle>

      <!-- Base Axes -->
      <line x1="15" y1="90" x2="145" y2="90" stroke="#475569" stroke-width="1.5" stroke-linecap="round"/>
      <line x1="15" y1="28" x2="15" y2="90" stroke="#475569" stroke-width="1.5" stroke-linecap="round"/>
    </g>

    <!-- Donut Chart Panel -->
    <g transform="translate(0, 260)">
      <rect width="160" height="100" rx="10" fill="url(#panel-grad)" stroke="#334155" stroke-width="1.5"/>
      <text x="15" y="20" class="node-sub">Sentiment</text>
      
      <g transform="translate(80, 58)">
        <!-- Inner background track -->
        <circle r="26" fill="none" stroke="#1e293b" stroke-width="8"/>
        
        <!-- Static segments -->
        <g>
          <!-- Positive (Green) -->
          <circle r="26" fill="none" stroke="#10b981" stroke-width="8" stroke-dasharray="100 163.4" stroke-linecap="round"/>
          <!-- Neutral (Gray) -->
          <circle r="26" fill="none" stroke="#94a3b8" stroke-width="8" stroke-dasharray="35 163.4" stroke-dashoffset="-110" stroke-linecap="round"/>
          <!-- Negative (Red) -->
          <circle r="26" fill="none" stroke="#ef4444" stroke-width="8" stroke-dasharray="18 163.4" stroke-dashoffset="-155" stroke-linecap="round"/>
        </g>
        
        <!-- Center text -->
        <text x="0" y="5" font-family="'Segoe UI', sans-serif" font-size="14" font-weight="bold" fill="#10b981" text-anchor="middle">60%</text>
      </g>
    </g>
  </g>

  <g transform="translate(340, 375)">
    <rect width="240" height="220" rx="15" fill="url(#panel-grad)" stroke="#0ea5e9" stroke-width="2" filter="url(#panel-glow)"/>
    
    <!-- Airflow Row -->
    <g transform="translate(0, 25)">
      <svg x="65" y="0" width="25" height="25" viewBox="0 0 128 128">
        <path d="m2.5441 127 60.809-62.332a1.124 1.124 0 0 0 0.1359-1.4368c-3.6977-5.1625-10.521-6.0578-13.05-9.5268-7.4903-10.275-9.3909-16.092-12.61-15.731a0.98374 0.98374 0 0 0-0.58464 0.3085l-21.966 22.518c-12.638 12.944-14.454 41.475-14.782 65.367a1.1908 1.1908 0 0 0 2.0473 0.83273z" fill="#017cee"/>
        <path d="m126.99 125.46-62.332-60.813a1.124 1.124 0 0 0-1.4389-0.1359c-5.1625 3.6998-6.0578 10.521-9.5268 13.05-10.275 7.4903-16.092 9.3909-15.731 12.61a0.98374 0.98374 0 0 0 0.3085 0.58248l22.518 21.966c12.944 12.638 41.475 14.454 65.367 14.782a1.1908 1.1908 0 0 0 0.83489-2.0408z" fill="#00ad46"/>
        <path d="m60.792 112.72c-7.076-6.9035-10.355-20.559 3.2058-48.719-22.046 9.8525-29.771 22.803-25.972 26.511z" fill="#04d659"/>
        <path d="m125.45 1.0113-60.807 62.332a1.1218 1.1218 0 0 0-0.1359 1.4368c3.6998 5.1625 10.519 6.0578 13.05 9.5268 7.4903 10.275 9.393 16.092 12.61 15.731a0.97943 0.97943 0 0 0 0.58464-0.3085l21.966-22.518c12.638-12.944 14.454-41.475 14.782-65.367a1.193 1.193 0 0 0-2.0495-0.83273z" fill="#00c7d4"/>
        <path d="m112.73 67.211c-6.9035 7.076-20.559 10.355-48.721-3.2058 9.8525 22.046 22.803 29.771 26.511 25.972z" fill="#11e1ee"/>
        <path d="m1.0017 2.5495 62.332 60.807a1.124 1.124 0 0 0 1.4368 0.1359c5.1625-3.6998 6.0578-10.521 9.5268-13.05 10.275-7.4903 16.092-9.3909 15.731-12.61a0.99022 0.99022 0 0 0-0.3085-0.58463l-22.518-21.966c-12.944-12.638-41.475-14.454-65.367-14.782a1.1908 1.1908 0 0 0-0.83273 2.0495z" fill="#e43921"/>
        <path d="m67.212 15.284c7.076 6.9035 10.355 20.559-3.2058 48.721 22.046-9.8525 29.771-22.805 25.972-26.511z" fill="#ff7557"/>
        <path d="m15.279 60.8c6.9035-7.076 20.559-10.355 48.721 3.2058-9.8525-22.046-22.803-29.771-26.511-25.972z" fill="#0cb6ff"/>
        <circle cx="64.009" cy="63.995" r="2.7182" fill="#4a4848"/>
      </svg>
      <text x="105" y="10" class="node-sub">Apache</text>
      <text x="105" y="27" font-family="'Segoe UI', sans-serif" font-size="20" font-weight="bold" fill="#f8fafc">Airflow</text>
    </g>

    <!-- Divider -->
    <line x1="30" y1="70" x2="210" y2="70" stroke="#334155" stroke-width="1" stroke-dasharray="4 4"/>

    <!-- Docker Row -->
    <g transform="translate(0, 80)">
      <svg x="55" y="0" width="36" height="36" viewBox="0 0 512 512">
         <path fill="#2496ed" d="M296 245h42v-38h-42zm-50 0h42v-38h-42zm-49 0h42v-38h-42zm-49 0h41v-38h-41zm-50 0h42v-38H98zm50-46h41v-38h-41zm49 0h42v-38h-42zm49 0h42v-38h-42zm0-46h42v-38h-42zm226 75s-18-17-55-11c-4-29-35-46-35-46s-29 35-8 74c-6 3-16 7-31 7H68c-5 19-5 145 133 145 99 0 173-46 208-130 52 4 63-39 63-39z"/>
      </svg>
      <text x="105" y="28" font-family="'Segoe UI', sans-serif" font-size="22" font-weight="bold" fill="#f8fafc">Docker</text>
    </g>

    <!-- AWS / EC2 Row -->
    <g transform="translate(0, 150)">
      <text x="120" y="0" class="node-sub" text-anchor="middle">Hosted on EC2</text>
      
      <g transform="translate(72, 15)">
        <use href="#aws-logo" x="0" y="0" width="45" height="36"/>
      </g>
      
      <!-- EC2 Icon (36x36) -->
      <g transform="translate(132, 15)">
        <rect x="0" y="0" width="36" height="36" rx="4" fill="#f97316" opacity="0.9"/>
        <rect x="9" y="9" width="18" height="18" fill="none" stroke="#fff" stroke-width="1.5"/>
        <path d="M 13 9 L 13 5 M 18 9 L 18 5 M 23 9 L 23 5" stroke="#fff" stroke-width="1"/>
        <path d="M 13 27 L 13 31 M 18 27 L 18 31 M 23 27 L 23 31" stroke="#fff" stroke-width="1"/>
        <path d="M 9 13 L 5 13 M 9 18 L 5 18 M 9 23 L 5 23" stroke="#fff" stroke-width="1"/>
        <path d="M 27 13 L 31 13 M 27 18 L 31 18 M 27 23 L 31 23" stroke="#fff" stroke-width="1"/>
      </g>
    </g>
  </g>

  <!-- ==================== ANIMATED DATA PARTICLES ==================== -->
  
  <!-- Extract Flow -->
  <circle cx="0" cy="0" r="4" fill="#ef4444" filter="url(#glow)">
    <animateMotion dur="1.5s" repeatCount="indefinite" begin="0s"><mpath href="#p-extract"/></animateMotion>
  </circle>
  <circle cx="0" cy="0" r="4" fill="#ef4444" filter="url(#glow)">
    <animateMotion dur="1.5s" repeatCount="indefinite" begin="0.75s"><mpath href="#p-extract"/></animateMotion>
  </circle>

  <!-- Load Flow -->
  <circle cx="0" cy="0" r="4" fill="#fcd34d" filter="url(#glow)">
    <animateMotion dur="1.5s" repeatCount="indefinite" begin="0s"><mpath href="#p-load"/></animateMotion>
  </circle>
  <circle cx="0" cy="0" r="4" fill="#fcd34d" filter="url(#glow)">
    <animateMotion dur="1.5s" repeatCount="indefinite" begin="0.75s"><mpath href="#p-load"/></animateMotion>
  </circle>

  <!-- Visualize Flow -->
  <circle cx="0" cy="0" r="4" fill="#f97316" filter="url(#glow)">
    <animateMotion dur="1.5s" repeatCount="indefinite" begin="0.25s"><mpath href="#p-viz"/></animateMotion>
  </circle>
  <circle cx="0" cy="0" r="4" fill="#f97316" filter="url(#glow)">
    <animateMotion dur="1.5s" repeatCount="indefinite" begin="1s"><mpath href="#p-viz"/></animateMotion>
  </circle>

</svg>